<svg xmlns="http://www.w3.org/2000/svg" viewBox="0 0 1240 440" font-family="'Segoe UI', Roboto, Helvetica, Arial, sans-serif" role="img" aria-label="Power BI workflow: data Sources flow into Power BI where they pass through five stages — 1 Power Query, 2 Modeling, 3 DAX, 4 Visuals, 5 Share — and the finished report is delivered to Managers.">
  <defs>
    <marker id="arrow" viewBox="0 0 10 10" refX="8" refY="5" markerWidth="7" markerHeight="7" orient="auto-start-reverse">
      <path d="M0 0 L10 5 L0 10 z" fill="#F2A20C"/>
    </marker>
  </defs>

  <rect width="1240" height="440" fill="#ffffff"/>

  <!-- ============ LEFT: SOURCES ============ -->
  <text x="90" y="70" text-anchor="middle" font-size="24" font-weight="700" fill="#252423">Sources</text>
  <!-- database cylinder -->
  <g fill="#eef1f4" stroke="#6b6f76" stroke-width="2.5">
    <ellipse cx="90" cy="120" rx="34" ry="11"/>
    <path d="M56 120 V158 a34 11 0 0 0 68 0 V120" fill="#eef1f4"/>
    <path d="M56 139 a34 11 0 0 0 68 0" fill="none"/>
  </g>
  <!-- table/sheet stack -->
  <g stroke="#6b6f76" stroke-width="2.5">
    <rect x="66" y="205" width="52" height="42" rx="3" fill="#dfe7ef"/>
    <rect x="58" y="215" width="52" height="42" rx="3" fill="#eef3f8"/>
    <line x1="58" y1="228" x2="110" y2="228" stroke-width="2"/>
    <line x1="75" y1="215" x2="75" y2="257" stroke-width="2"/>
  </g>
  <!-- gear -->
  <g transform="translate(90,320)" fill="#c7ccd3" stroke="#6b6f76" stroke-width="2">
    <path d="M0-26 6-24 8-32 16-30 15-22 22-18 28-24 34-16 27-11 29-3 37 0 35 8 27 8 24 15 30 21 22 28 16 22 8 25 8 33 0 31 -3 26z" transform="scale(0.62)"/>
    <circle cx="0" cy="0" r="6.5" fill="#ffffff"/>
  </g>

  <!-- source labels -->
  <g font-size="13" font-weight="600" fill="#6c6f76" text-anchor="middle">
    <text x="90" y="186">Db</text>
    <text x="90" y="274">files</text>
    <text x="90" y="357">API</text>
  </g>

  <!-- arrow Sources -> Power BI -->
  <path d="M140 232 H196" fill="none" stroke="#F2A20C" stroke-width="4.5" stroke-linecap="round" marker-end="url(#arrow)"/>

  <!-- ============ POWER BI CONTAINER ============ -->
  <rect x="210" y="96" width="800" height="300" rx="16" fill="#ffffff" stroke="#d9dce1" stroke-width="2.5"/>

  <!-- Power BI logo + title (straddling the top border) -->
  <g transform="translate(560,58)">
    <rect x="0"  y="18" width="12" height="30" rx="2" fill="#F2C811"/>
    <rect x="16" y="8"  width="12" height="40" rx="2" fill="#F2C811"/>
    <rect x="32" y="0"  width="12" height="48" rx="2" fill="#E6A700"/>
    <text x="56" y="40" font-size="34" font-weight="700" fill="#252423">Power BI</text>
  </g>

  <!-- dashed dividers between the 5 stages -->
  <g stroke="#d0d4da" stroke-width="2" stroke-dasharray="4 7">
    <line x1="370" y1="128" x2="370" y2="368"/>
    <line x1="530" y1="128" x2="530" y2="368"/>
    <line x1="690" y1="128" x2="690" y2="368"/>
    <line x1="850" y1="128" x2="850" y2="368"/>
  </g>

  <!-- STAGE 1: Power Query -->
  <g>
    <circle cx="290" cy="150" r="15" fill="#118DFF"/>
    <text x="290" y="156" text-anchor="middle" font-size="17" font-weight="700" fill="#fff">1</text>
    <text x="290" y="196" text-anchor="middle" font-size="19" font-weight="700" fill="#252423">Power Query</text>
    <text x="290" y="216" text-anchor="middle" font-size="12.5" fill="#787c83">clean &amp; shape</text>
    <!-- grid + funnel icon -->
    <g transform="translate(258,244)">
      <rect x="0" y="0" width="64" height="52" rx="3" fill="#eef3f8" stroke="#8a8f96" stroke-width="2"/>
      <line x1="0" y1="17" x2="64" y2="17" stroke="#8a8f96" stroke-width="1.6"/>
      <line x1="0" y1="34" x2="64" y2="34" stroke="#8a8f96" stroke-width="1.6"/>
      <line x1="21" y1="0" x2="21" y2="52" stroke="#8a8f96" stroke-width="1.6"/>
      <line x1="43" y1="0" x2="43" y2="52" stroke="#8a8f96" stroke-width="1.6"/>
      <rect x="0" y="0" width="21" height="17" fill="#cfe8d6"/>
      <path d="M74 8 h26 l-9 12 v14 l-8 5 v-19 z" fill="#118DFF"/>
    </g>
  </g>

  <!-- STAGE 2: Modeling -->
  <g>
    <circle cx="450" cy="150" r="15" fill="#118DFF"/>
    <text x="450" y="156" text-anchor="middle" font-size="17" font-weight="700" fill="#fff">2</text>
    <text x="450" y="196" text-anchor="middle" font-size="19" font-weight="700" fill="#252423">Modeling</text>
    <text x="450" y="216" text-anchor="middle" font-size="12.5" fill="#787c83">relationships</text>
    <!-- linked tables (star) -->
    <g>
      <rect x="428" y="258" width="44" height="30" rx="3" fill="#F7E9B8" stroke="#8a8f96" stroke-width="2"/>
      <rect x="392" y="238" width="30" height="22" rx="3" fill="#eef3f8" stroke="#8a8f96" stroke-width="2"/>
      <rect x="478" y="238" width="30" height="22" rx="3" fill="#eef3f8" stroke="#8a8f96" stroke-width="2"/>
      <rect x="392" y="288" width="30" height="22" rx="3" fill="#eef3f8" stroke="#8a8f96" stroke-width="2"/>
      <rect x="478" y="288" width="30" height="22" rx="3" fill="#eef3f8" stroke="#8a8f96" stroke-width="2"/>
      <g stroke="#118DFF" stroke-width="2">
        <line x1="422" y1="249" x2="440" y2="266"/>
        <line x1="478" y1="249" x2="460" y2="266"/>
        <line x1="422" y1="299" x2="440" y2="282"/>
        <line x1="478" y1="299" x2="460" y2="282"/>
      </g>
    </g>
  </g>

  <!-- STAGE 3: DAX -->
  <g>
    <circle cx="610" cy="150" r="15" fill="#118DFF"/>
    <text x="610" y="156" text-anchor="middle" font-size="17" font-weight="700" fill="#fff">3</text>
    <text x="610" y="196" text-anchor="middle" font-size="19" font-weight="700" fill="#252423">DAX</text>
    <text x="610" y="216" text-anchor="middle" font-size="12.5" fill="#787c83">measures</text>
    <!-- f(x) gear -->
    <g transform="translate(610,272)">
      <circle r="30" fill="#e7f1fb" stroke="#118DFF" stroke-width="2.5"/>
      <text x="0" y="7" text-anchor="middle" font-size="22" font-style="italic" font-weight="700" fill="#118DFF">f(x)</text>
    </g>
    <text x="654" y="252" font-size="15" fill="#9aa0a6">Σ</text>
    <text x="566" y="300" font-size="14" fill="#9aa0a6">√</text>
  </g>

  <!-- STAGE 4: Visuals -->
  <g>
    <circle cx="770" cy="150" r="15" fill="#118DFF"/>
    <text x="770" y="156" text-anchor="middle" font-size="17" font-weight="700" fill="#fff">4</text>
    <text x="770" y="196" text-anchor="middle" font-size="19" font-weight="700" fill="#252423">Visuals</text>
    <text x="770" y="216" text-anchor="middle" font-size="12.5" fill="#787c83">charts</text>
    <!-- mini dashboard -->
    <g transform="translate(736,242)">
      <rect x="0" y="0" width="68" height="54" rx="3" fill="#fbfcfd" stroke="#8a8f96" stroke-width="2"/>
      <circle cx="16" cy="18" r="10" fill="none" stroke="#118DFF" stroke-width="4"/>
      <path d="M16 18 L16 8 A10 10 0 0 1 25 20 z" fill="#F2C811"/>
      <rect x="36" y="24" width="6" height="12" fill="#118DFF"/>
      <rect x="45" y="16" width="6" height="20" fill="#50C878"/>
      <rect x="54" y="22" width="6" height="14" fill="#F2C811"/>
      <line x1="8" y1="46" x2="60" y2="46" stroke="#c7ccd3" stroke-width="3"/>
    </g>
  </g>

  <!-- STAGE 5: Share -->
  <g>
    <circle cx="930" cy="150" r="15" fill="#118DFF"/>
    <text x="930" y="156" text-anchor="middle" font-size="17" font-weight="700" fill="#fff">5</text>
    <text x="930" y="196" text-anchor="middle" font-size="19" font-weight="700" fill="#252423">Share</text>
    <text x="930" y="216" text-anchor="middle" font-size="12.5" fill="#787c83">publish</text>
    <!-- cloud + up arrow -->
    <g transform="translate(930,276)">
      <path d="M-30 8 a16 16 0 0 1 6 -31 a20 20 0 0 1 38 4 a14 14 0 0 1 -2 27 z" fill="#e7f1fb" stroke="#118DFF" stroke-width="2.5"/>
      <path d="M0 4 V-14 M-8 -6 L0 -15 L8 -6" fill="none" stroke="#118DFF" stroke-width="3" stroke-linecap="round" stroke-linejoin="round"/>
    </g>
  </g>

  <!-- arrow Power BI -> Managers -->
  <path d="M1010 232 H1066" fill="none" stroke="#F2A20C" stroke-width="4.5" stroke-linecap="round" marker-end="url(#arrow)"/>

  <!-- ============ RIGHT: MANAGERS ============ -->
  <g transform="translate(1150,205)">
    <g fill="#eef1f4" stroke="#6b6f76" stroke-width="2.2">
      <circle cx="-34" cy="-6" r="11"/><path d="M-49 22 a15 16 0 0 1 30 0 z"/>
      <circle cx="0" cy="-12" r="12"/><path d="M-16 18 a16 17 0 0 1 32 0 z"/>
      <circle cx="34" cy="-6" r="11"/><path d="M19 22 a15 16 0 0 1 30 0 z"/>
    </g>
    <text x="0" y="52" text-anchor="middle" font-size="18" font-weight="700" fill="#252423">Managers</text>
  </g>
</svg>
